<svg id="Capa_1" enable-background="new 0 0 512 512" height="512" viewBox="0 0 512 512" width="512" xmlns="http://www.w3.org/2000/svg"><g><path d="m363 302h-55v-45c0-30.327-24.673-55-55-55-19.299 0-35 15.701-35 35v30c0 9.673-3.196 19.262-9 27-8.453 11.271-21.911 18-36 18h-15v-15c0-8.284-6.716-15-15-15h-128c-8.284 0-15 6.716-15 15v200c0 8.284 6.716 15 15 15h128c8.284 0 15-6.716 15-15v-15h39.026c21.572 19.394 49.171 30 78.4 30h77.574c30.327 0 55-24.673 55-55v-110c0-24.813-20.186-45-45-45zm-235 180h-98v-170h98zm250-120h-35c-8.284 0-15 6.716-15 15s6.716 15 15 15h35v30h-35c-8.284 0-15 6.716-15 15s6.716 15 15 15h35v5c0 13.785-11.215 25-25 25h-77.573c-23.353 0-45.308-9.094-61.82-25.606-2.813-2.814-6.628-4.394-10.607-4.394h-45v-110h15c23.481 0 45.911-11.215 60-30 9.673-12.897 15-28.879 15-45v-30c0-2.757 2.243-5 5-5 13.785 0 25 11.215 25 25v60c0 8.284 6.716 15 15 15h70c8.271 0 15 6.729 15 15z"/><path d="m245.394 165.578c5.858 5.858 15.355 5.858 21.213 0l64.743-64.743c23.037-23.037 23.036-60.521-.001-83.558-20.466-20.466-52.338-22.749-75.349-6.849-23.011-15.9-54.884-13.617-75.35 6.849-23.037 23.037-23.036 60.521.001 83.558zm-43.531-127.087c11.34-11.34 29.792-11.34 41.132 0l2.398 2.398c5.858 5.858 15.355 5.858 21.213 0l2.398-2.398c11.34-11.34 29.791-11.34 41.131 0s11.341 29.792.001 41.132l-54.136 54.136-54.136-54.136c-11.34-11.341-11.341-29.793-.001-41.132z"/><path d="m498.405 113.616c-15.393-15.393-38.985-17.713-56.851-6.961-17.865-10.752-41.459-8.432-56.852 6.961-18.126 18.126-18.125 47.619.001 65.745l46.245 46.245c5.858 5.858 15.355 5.858 21.213 0l46.245-46.245c18.126-18.125 18.125-47.619-.001-65.745zm-21.212 44.532-35.638 35.638-35.639-35.638c-6.429-6.429-6.429-16.89-.001-23.319 6.429-6.429 16.891-6.429 23.319 0l1.713 1.713c5.858 5.858 15.355 5.858 21.213 0l1.713-1.713c6.429-6.429 16.889-6.429 23.318 0 6.43 6.429 6.431 16.89.002 23.319z"/><path d="m59.839 225.606c5.858 5.858 15.355 5.858 21.213 0l46.245-46.245c18.126-18.126 18.125-47.619-.001-65.745-15.393-15.393-38.985-17.713-56.851-6.961-17.865-10.752-41.458-8.433-56.852 6.961-18.126 18.126-18.126 47.62 0 65.746zm-25.031-90.777c6.429-6.429 16.89-6.428 23.319.001l1.713 1.713c5.858 5.858 15.355 5.858 21.213 0l1.713-1.713c6.429-6.429 16.889-6.429 23.318 0s6.43 16.89.001 23.319l-35.638 35.638-35.638-35.638c-6.43-6.43-6.43-16.891-.001-23.32z"/></g></svg>