<svg xmlns="http://www.w3.org/2000/svg" viewBox="0 0 64 64">
    <g transform="translate(-161.07 -65.42)">
        <path
            d="M166.292,99.541a21.639,21.639,0,0,1,.056-28.257,16.783,16.783,0,0,1,25.491,0l1.232,1.369,1.232-1.369a16.78,16.78,0,0,1,25.487,0,21.628,21.628,0,0,1,.056,28.257L195.4,128.307a2.987,2.987,0,0,1-4.651,0Zm26.779,21.145L215.2,94.651l.066-.073a13.956,13.956,0,0,0,0-18.265,10.82,10.82,0,0,0-16.441,0L195.334,80.2a2.982,2.982,0,0,1-4.526,0l-3.5-3.884a10.817,10.817,0,0,0-16.438,0,13.955,13.955,0,0,0,0,18.265c.023.026.043.048.063.073Z"
            transform="translate(0)" fill="currentcolor" fill-rule="evenodd" />
    </g>
</svg>