<?xml version="1.0" encoding="UTF-8"?>
<svg xmlns="http://www.w3.org/2000/svg" id="Layer_1" data-name="Layer 1" viewBox="0 0 64 64" width="512" height="512"><path d="M45,46a2,2,0,0,1-2-2,10.959,10.959,0,0,0-8.365-10.678,2,2,0,0,1-.307-3.783,6,6,0,1,0-4.656,0,2,2,0,0,1-.307,3.783A10.959,10.959,0,0,0,21,44a2,2,0,0,1-4,0,14.955,14.955,0,0,1,7.729-13.128,10,10,0,1,1,14.542,0A14.955,14.955,0,0,1,47,44,2,2,0,0,1,45,46Z"/><path d="M32,62A30,30,0,1,1,38.427,2.69,2,2,0,0,1,37.573,6.6a25.977,25.977,0,1,0,18.72,16.116,2,2,0,1,1,3.736-1.43A30.017,30.017,0,0,1,32,62Z"/><path d="M50,23a2,2,0,0,1-1.07-.311,6.276,6.276,0,0,1-1.067-.861l-5.77-5.737a6.336,6.336,0,0,1-.865-1.058A6.979,6.979,0,0,1,42.1,6.07,7.108,7.108,0,0,1,50,4.613a7.085,7.085,0,0,1,8.75,10.455,6.37,6.37,0,0,1-.842,1.022l-5.772,5.739a6.273,6.273,0,0,1-1.066.86A2,2,0,0,1,50,23ZM47.108,8a3.1,3.1,0,0,0-2.2.911,3.02,3.02,0,0,0-.366,3.893,2.689,2.689,0,0,0,.367.452L50,18.313l5.087-5.058a2.387,2.387,0,0,0,.32-.384c.015-.022.03-.045.046-.067a3.018,3.018,0,0,0-.361-3.888,3.154,3.154,0,0,0-3.943-.375,2,2,0,0,1-2.3,0A3.021,3.021,0,0,0,47.108,8Z"/></svg>
