<svg id="Capa_1" enable-background="new 0 0 512.419 512.419" height="512" viewBox="0 0 512.419 512.419" width="512" xmlns="http://www.w3.org/2000/svg"><g><path d="m105.945 256.206c0 82.74 67.314 150.055 150.055 150.055s150.055-67.314 150.055-150.055-67.315-150.055-150.055-150.055-150.055 67.315-150.055 150.055zm170.032-90.453c2.957 8.279 5.442 17.557 7.443 27.553h-54.84c2.002-9.996 4.487-19.274 7.443-27.553 7.701-21.564 16.34-29.601 19.977-29.601s12.276 8.036 19.977 29.601zm100.078 90.453c0 11.404-1.599 22.441-4.583 32.9h-53.636c.913-10.675 1.394-21.693 1.394-32.9s-.481-22.226-1.394-32.9h53.636c2.984 10.459 4.583 21.496 4.583 32.9zm-86.826 0c0 11.284-.516 22.314-1.498 32.9h-63.461c-.982-10.586-1.498-21.616-1.498-32.9 0-11.285.516-22.315 1.498-32.9h63.461c.982 10.585 1.498 21.616 1.498 32.9zm-33.229 120.055c-3.637 0-12.276-8.037-19.977-29.601-2.957-8.28-5.442-17.558-7.443-27.554h54.84c-2.002 9.996-4.487 19.274-7.443 27.554-7.701 21.564-16.34 29.601-19.977 29.601zm-120.055-120.055c0-11.404 1.599-22.441 4.583-32.9h53.636c-.913 10.675-1.394 21.693-1.394 32.9s.481 22.225 1.394 32.9h-53.636c-2.984-10.459-4.583-21.496-4.583-32.9zm76.33-111.81c-1.544 3.455-3.05 7.195-4.505 11.267-4.006 11.219-7.254 23.933-9.7 37.643h-44.286c13.602-22.022 34.113-39.343 58.491-48.91zm-58.49 174.71h44.286c2.446 13.71 5.693 26.424 9.7 37.643 1.454 4.073 2.961 7.812 4.505 11.267-24.379-9.566-44.89-26.888-58.491-48.91zm145.94 48.91c1.544-3.455 3.05-7.195 4.505-11.267 4.006-11.219 7.254-23.933 9.7-37.643h44.286c-13.602 22.022-34.113 39.344-58.491 48.91zm58.49-174.71h-44.286c-2.446-13.709-5.693-26.424-9.7-37.643-1.454-4.073-2.961-7.812-4.505-11.267 24.379 9.567 44.89 26.888 58.491 48.91z"/><path d="m512.418 73.037c0-27.216-22.142-49.357-49.357-49.357-9.219 0-18.152 2.583-25.851 7.32-7.699-4.737-16.631-7.32-25.851-7.32-27.215 0-49.357 22.142-49.357 49.357-.578 31.074 30.95 59.895 75.208 86.511 6.196-3.712 12.028-7.404 17.492-11.081 17.904 32.94 27.298 69.802 27.298 107.739 0 60.367-23.508 117.121-66.194 159.806-42.686 42.686-99.439 66.194-159.806 66.194-33.642.426-67.746-8.396-98.463-21.96.035-.088-11.123 27.553-11.23 27.819 34.113 15.059 71.722 24.444 109.693 24.141 68.38 0 132.667-26.628 181.02-74.981 48.352-48.351 74.98-112.639 74.98-181.019 0-44.488-11.398-87.687-33.109-126.003 22.102-19.084 33.668-37.934 33.527-57.166zm-120.415 0c0-10.674 8.684-19.357 19.357-19.357 10.445-1.104 19.87 12.956 25.851 19.508 6.636-7.046 14.278-19.903 25.851-19.508 10.673 0 19.357 8.684 19.357 19.357 0 16.822-23.018 36.197-45.208 50.964-22.19-14.768-45.208-34.142-45.208-50.964z"/><path d="m101.269 364.504c-9.219 0-18.152 2.583-25.851 7.32-5.321-3.274-11.233-5.518-17.42-6.592-18.351-33.267-27.998-70.67-27.998-109.026 0-60.367 23.508-117.12 66.194-159.806s99.439-66.194 159.806-66.194c29.386 0 57.965 5.552 84.942 16.501l11.282-27.798c-30.577-12.41-62.952-18.703-96.224-18.703-68.38 0-132.667 26.629-181.02 74.98-48.351 48.353-74.98 112.64-74.98 181.02 0 39.799 9.171 78.704 26.7 113.937-15.73 8.261-26.489 24.753-26.489 43.719-.578 31.074 30.95 59.895 75.208 86.511 49.042-29.381 75.42-57.51 75.208-86.511-.001-27.216-22.143-49.358-49.358-49.358zm-25.85 100.322c-22.19-14.768-45.208-34.142-45.208-50.964 0-10.674 8.684-19.357 19.357-19.357 10.445-1.104 19.87 12.956 25.851 19.508 6.636-7.046 14.278-19.903 25.851-19.508 10.673 0 19.357 8.684 19.357 19.357-.001 16.822-23.018 36.197-45.208 50.964z"/></g></svg>