<svg id="Capa_1" enable-background="new 0 0 511.91 511.91" height="512" viewBox="0 0 511.91 511.91" width="512" xmlns="http://www.w3.org/2000/svg"><g><path d="m390.453 376.825c-6.475-6.475-14.411-10.955-23.066-13.132 5.451-17.236 1.355-36.867-12.287-50.51-7.754-7.752-17.604-12.646-28.273-14.149.326-2.32.492-4.679.492-7.062 0-13.356-5.201-25.912-14.645-35.355-4.948-4.948-10.749-8.731-17.073-11.211l41.721-41.722c9.444-9.444 14.645-22 14.645-35.355 0-13.356-5.201-25.912-14.645-35.355-9.443-9.443-22-14.644-35.355-14.644s-25.912 5.201-35.355 14.644l-36.39 36.389c-3.15-6.967-7.48-14.18-13.39-20.089-32.389-32.39-69.884-23.407-85.184-14.131-6.333 3.838-8.917 11.724-6.084 18.565.217.523 20.987 51.479 15.74 104.57l-3.786 3.785c-40.939 40.939-40.939 107.553 0 148.492l70.711 70.711c19.761 19.762 46.129 30.645 74.246 30.645 28.115 0 54.485-10.884 74.244-30.643l33.734-33.729c9.444-9.444 14.645-22 14.645-35.357s-5.201-25.912-14.645-35.357zm-228.561-220.193c12.131-1.053 23.476 3.604 33.726 13.854 5.595 5.595 9.297 15.315 11.199 22.279l-35.021 35.02c-1.601-29.502-8.342-55.344-13.24-70.72 1.059-.182 2.174-.332 3.336-.433zm207.355 269.683-33.741 33.737c-14.095 14.095-32.928 21.857-53.032 21.857s-38.938-7.763-53.033-21.857l-70.711-70.711c-14.095-14.096-21.858-32.93-21.858-53.033 0-20.104 7.763-38.938 21.858-53.033l129.094-129.09c3.777-3.777 8.8-5.857 14.142-5.857s10.365 2.08 14.142 5.858c3.778 3.777 5.858 8.799 5.858 14.142 0 5.342-2.08 10.364-5.858 14.143l-112.344 112.343c-5.858 5.857-5.858 15.355 0 21.213 2.929 2.93 6.768 4.394 10.606 4.394 3.839 0 7.678-1.464 10.606-4.394l38.198-38.198c3.777-3.777 8.8-5.858 14.142-5.858s10.365 2.08 14.142 5.858c3.778 3.777 5.858 8.8 5.858 14.142s-2.08 10.364-5.857 14.142l-7.071 7.07s0 0-.001.001l-31.126 31.127c-5.857 5.858-5.857 15.355 0 21.213 2.929 2.93 6.768 4.393 10.606 4.393s7.678-1.465 10.607-4.393l31.126-31.127c0-.001.001-.001.002-.003 3.777-3.775 8.798-5.854 14.139-5.854 5.343 0 10.365 2.079 14.143 5.856 7.798 7.798 7.798 20.487 0 28.284l-31.128 31.128c-5.858 5.857-5.858 15.356 0 21.213 2.929 2.929 6.768 4.394 10.606 4.394s7.678-1.465 10.606-4.394l16.974-16.974c.004-.004.007-.006.01-.01l.034-.034c3.773-3.755 8.782-5.824 14.108-5.824 5.342 0 10.365 2.08 14.142 5.857 3.778 3.778 5.858 8.801 5.858 14.143.004 5.344-2.076 10.367-5.847 14.136z"/><path d="m194.809 97.104c14.224 10.947 28.42 17.066 29.018 17.321 1.882.804 3.886 1.205 5.891 1.205s4.01-.401 5.891-1.205c.597-.255 14.793-6.374 29.017-17.321 20.68-15.917 31.61-34.514 31.61-53.779 0-23.89-19.436-43.325-43.325-43.325-8.318 0-16.345 2.401-23.194 6.744-6.849-4.342-14.876-6.744-23.194-6.744-23.89 0-43.325 19.435-43.325 43.324 0 19.266 10.93 37.863 31.611 53.78zm11.714-67.104c4.334 0 8.415 2.128 10.917 5.692 2.809 4.001 7.39 6.382 12.278 6.382s9.47-2.382 12.277-6.383c2.501-3.563 6.581-5.691 10.915-5.691 7.348 0 13.325 5.978 13.325 13.324 0 17.602-23.004 33.464-36.545 40.655-13.535-7.143-36.494-22.929-36.494-40.655.002-7.346 5.979-13.324 13.327-13.324z"/></g></svg>