<svg xmlns="http://www.w3.org/2000/svg" width="26.805" height="26.814" viewBox="0 0 26.805 26.814">
  <g id="Group_1521" data-name="Group 1521" transform="translate(-337 -1134)">
    <path id="link-alt" d="M13.9,18.25a1.341,1.341,0,0,1-.948-.393,6.589,6.589,0,0,1-.671-8.607,5.017,5.017,0,0,1,.67-.8l4.505-4.506a6.649,6.649,0,1,1,9.4,9.4L24.4,15.819a1.341,1.341,0,1,1-1.9-1.9l2.467-2.467a3.975,3.975,0,0,0,0-5.613,4.063,4.063,0,0,0-5.611,0l-4.5,4.505a2.8,2.8,0,0,0-.359.426,3.946,3.946,0,0,0,.359,5.186,1.341,1.341,0,0,1-.948,2.289Zm-.552,8.617,4.5-4.505a6.461,6.461,0,0,0,1.561-2.479,6.658,6.658,0,0,0-1.561-6.925,1.341,1.341,0,1,0-1.9,1.9,3.931,3.931,0,0,1,.924,4.156,3.815,3.815,0,0,1-.924,1.461l-4.5,4.505a4.063,4.063,0,0,1-5.611,0,3.975,3.975,0,0,1,0-5.613L8.311,16.9A1.341,1.341,0,1,0,6.422,15L3.955,17.463a6.649,6.649,0,1,0,9.4,9.4Z" transform="translate(334.993 1131.999)"/>
  </g>
</svg>
