<svg id="Capa_1" enable-background="new 0 0 512 512" height="512" viewBox="0 0 512 512" width="512" xmlns="http://www.w3.org/2000/svg"><g><path d="m477 0h-442c-19.299 0-35 15.701-35 35v442c0 19.299 15.701 35 35 35h442c19.299 0 35-15.701 35-35 0-8.554 0-432.631 0-442 0-19.299-15.701-35-35-35zm-284.2 422.82v59.18h-66.4v-59.18zm30 0h66.4v59.18h-66.4zm96.4 0h66.4v59.18h-66.4zm-289.2-30v-273.64h452v273.64zm289.2-303.64v-59.18h66.4v59.18zm-30 0h-66.4v-59.18h66.4zm-96.4 0h-66.4v-59.18h66.4zm289.2-54.18v54.18h-66.4v-59.18h61.4c2.757 0 5 2.243 5 5zm-452 0c0-2.757 2.243-5 5-5h61.4v59.18h-66.4zm0 442v-54.18h66.4v59.18h-61.4c-2.757 0-5-2.243-5-5zm452 0c0 2.757-2.243 5-5 5h-61.4v-59.18h66.4z"/><path d="m304.904 158.833c-18.284-.495-36.039 6.538-48.904 19.878-12.075-12.521-28.89-19.901-47.167-19.901-49.934 0-76.224 58.374-44.562 96.149l76.309 91.035c8.046 9.598 22.806 9.584 30.839 0l76.31-91.036h.001c31.384-37.444 5.806-94.857-42.826-96.125zm19.834 76.854-68.738 82.003-68.737-82.002c-15.419-18.393-2.855-46.877 21.57-46.877 14.796 0 27.822 8.908 33.188 22.694 2.243 5.763 7.794 9.559 13.979 9.559s11.735-3.796 13.979-9.559c5.57-14.309 19.244-23.094 34.142-22.682 23.553.613 35.951 28.572 20.617 46.864z"/></g></svg>